<mxfile host="65bd71144e">
    <diagram id="T7toD3Ibeq3LDW_OSxbF" name="Page-1">
        <mxGraphModel dx="2582" dy="1303" grid="1" gridSize="10" guides="1" tooltips="1" connect="1" arrows="1" fold="1" page="1" pageScale="1" pageWidth="827" pageHeight="1169" background="#ffffff" math="0" shadow="0">
            <root>
                <mxCell id="0"/>
                <mxCell id="1" parent="0"/>
                <mxCell id="2" value="" style="shape=cylinder3;whiteSpace=wrap;html=1;boundedLbl=1;backgroundOutline=1;size=15;fontFamily=JetBrains Mono;" vertex="1" parent="1">
                    <mxGeometry y="80" width="80" height="80" as="geometry"/>
                </mxCell>
                <mxCell id="3" value="PAIN" style="rounded=0;whiteSpace=wrap;html=1;fontFamily=JetBrains Mono;" vertex="1" parent="1">
                    <mxGeometry width="80" height="40" as="geometry"/>
                </mxCell>
                <mxCell id="4" value="" style="endArrow=classic;html=1;exitX=0.5;exitY=1;exitDx=0;exitDy=0;entryX=0.5;entryY=0;entryDx=0;entryDy=0;entryPerimeter=0;fontFamily=JetBrains Mono;" edge="1" parent="1" source="3" target="2">
                    <mxGeometry width="50" height="50" relative="1" as="geometry">
                        <mxPoint x="130" y="130" as="sourcePoint"/>
                        <mxPoint x="180" y="80" as="targetPoint"/>
                    </mxGeometry>
                </mxCell>
                <mxCell id="5" value="PAIN" style="shape=cylinder3;whiteSpace=wrap;html=1;boundedLbl=1;backgroundOutline=1;size=15;fontFamily=JetBrains Mono;" vertex="1" parent="1">
                    <mxGeometry x="160" y="80" width="80" height="80" as="geometry"/>
                </mxCell>
                <mxCell id="6" value="" style="rounded=0;whiteSpace=wrap;html=1;fontFamily=JetBrains Mono;" vertex="1" parent="1">
                    <mxGeometry x="160" width="80" height="40" as="geometry"/>
                </mxCell>
                <mxCell id="7" value="" style="endArrow=classic;html=1;exitX=0.5;exitY=1;exitDx=0;exitDy=0;entryX=0.5;entryY=0;entryDx=0;entryDy=0;entryPerimeter=0;fontFamily=JetBrains Mono;" edge="1" parent="1" source="6" target="5">
                    <mxGeometry width="50" height="50" relative="1" as="geometry">
                        <mxPoint x="290" y="130" as="sourcePoint"/>
                        <mxPoint x="340" y="80" as="targetPoint"/>
                    </mxGeometry>
                </mxCell>
                <mxCell id="10" value="PAIN" style="shape=cylinder3;whiteSpace=wrap;html=1;boundedLbl=1;backgroundOutline=1;size=15;fontFamily=JetBrains Mono;" vertex="1" parent="1">
                    <mxGeometry x="320" y="80" width="80" height="80" as="geometry"/>
                </mxCell>
                <mxCell id="11" value="PAIN" style="rounded=0;whiteSpace=wrap;html=1;fontFamily=JetBrains Mono;" vertex="1" parent="1">
                    <mxGeometry x="320" width="80" height="40" as="geometry"/>
                </mxCell>
                <mxCell id="12" value="" style="endArrow=classic;html=1;exitX=0.5;exitY=1;exitDx=0;exitDy=0;entryX=0.5;entryY=0;entryDx=0;entryDy=0;entryPerimeter=0;fontFamily=JetBrains Mono;" edge="1" parent="1" source="11" target="10">
                    <mxGeometry width="50" height="50" relative="1" as="geometry">
                        <mxPoint x="450" y="130" as="sourcePoint"/>
                        <mxPoint x="500" y="80" as="targetPoint"/>
                    </mxGeometry>
                </mxCell>
                <mxCell id="25" value="" style="shape=cylinder3;whiteSpace=wrap;html=1;boundedLbl=1;backgroundOutline=1;size=15;fontFamily=JetBrains Mono;" vertex="1" parent="1">
                    <mxGeometry y="400" width="80" height="80" as="geometry"/>
                </mxCell>
                <mxCell id="26" value="" style="rounded=0;whiteSpace=wrap;html=1;fontFamily=JetBrains Mono;" vertex="1" parent="1">
                    <mxGeometry y="320" width="80" height="40" as="geometry"/>
                </mxCell>
                <mxCell id="27" value="" style="endArrow=classic;html=1;exitX=0.5;exitY=1;exitDx=0;exitDy=0;entryX=0.5;entryY=0;entryDx=0;entryDy=0;entryPerimeter=0;fontFamily=JetBrains Mono;" edge="1" parent="1" source="26" target="25">
                    <mxGeometry width="50" height="50" relative="1" as="geometry">
                        <mxPoint x="130" y="450" as="sourcePoint"/>
                        <mxPoint x="180" y="400" as="targetPoint"/>
                    </mxGeometry>
                </mxCell>
                <mxCell id="28" value="PAIN" style="rounded=0;whiteSpace=wrap;html=1;fontFamily=JetBrains Mono;" vertex="1" parent="1">
                    <mxGeometry y="240" width="80" height="40" as="geometry"/>
                </mxCell>
                <mxCell id="29" value="" style="endArrow=classic;html=1;exitX=0.5;exitY=1;exitDx=0;exitDy=0;entryX=0.5;entryY=0;entryDx=0;entryDy=0;fontFamily=JetBrains Mono;" edge="1" parent="1" source="28" target="26">
                    <mxGeometry width="50" height="50" relative="1" as="geometry">
                        <mxPoint x="130" y="370" as="sourcePoint"/>
                        <mxPoint x="40" y="320" as="targetPoint"/>
                    </mxGeometry>
                </mxCell>
                <mxCell id="30" value="" style="shape=cylinder3;whiteSpace=wrap;html=1;boundedLbl=1;backgroundOutline=1;size=15;fontFamily=JetBrains Mono;" vertex="1" parent="1">
                    <mxGeometry x="160" y="400" width="80" height="80" as="geometry"/>
                </mxCell>
                <mxCell id="31" value="PAIN" style="rounded=0;whiteSpace=wrap;html=1;fontFamily=JetBrains Mono;" vertex="1" parent="1">
                    <mxGeometry x="160" y="320" width="80" height="40" as="geometry"/>
                </mxCell>
                <mxCell id="32" value="" style="endArrow=classic;html=1;exitX=0.5;exitY=1;exitDx=0;exitDy=0;entryX=0.5;entryY=0;entryDx=0;entryDy=0;entryPerimeter=0;fontFamily=JetBrains Mono;" edge="1" parent="1" source="31" target="30">
                    <mxGeometry width="50" height="50" relative="1" as="geometry">
                        <mxPoint x="290" y="450" as="sourcePoint"/>
                        <mxPoint x="340" y="400" as="targetPoint"/>
                    </mxGeometry>
                </mxCell>
                <mxCell id="33" value="" style="rounded=0;whiteSpace=wrap;html=1;fontFamily=JetBrains Mono;" vertex="1" parent="1">
                    <mxGeometry x="160" y="240" width="80" height="40" as="geometry"/>
                </mxCell>
                <mxCell id="34" value="" style="endArrow=classic;html=1;exitX=0.5;exitY=1;exitDx=0;exitDy=0;entryX=0.5;entryY=0;entryDx=0;entryDy=0;fontFamily=JetBrains Mono;" edge="1" parent="1" source="33" target="31">
                    <mxGeometry width="50" height="50" relative="1" as="geometry">
                        <mxPoint x="290" y="370" as="sourcePoint"/>
                        <mxPoint x="200" y="320" as="targetPoint"/>
                    </mxGeometry>
                </mxCell>
                <mxCell id="35" value="" style="shape=cylinder3;whiteSpace=wrap;html=1;boundedLbl=1;backgroundOutline=1;size=15;fontFamily=JetBrains Mono;" vertex="1" parent="1">
                    <mxGeometry x="320" y="400" width="80" height="80" as="geometry"/>
                </mxCell>
                <mxCell id="36" value="PAIN" style="rounded=0;whiteSpace=wrap;html=1;fontFamily=JetBrains Mono;" vertex="1" parent="1">
                    <mxGeometry x="320" y="320" width="80" height="40" as="geometry"/>
                </mxCell>
                <mxCell id="37" value="" style="endArrow=classic;html=1;exitX=0.5;exitY=1;exitDx=0;exitDy=0;entryX=0.5;entryY=0;entryDx=0;entryDy=0;entryPerimeter=0;fontFamily=JetBrains Mono;" edge="1" parent="1" source="36" target="35">
                    <mxGeometry width="50" height="50" relative="1" as="geometry">
                        <mxPoint x="450" y="450" as="sourcePoint"/>
                        <mxPoint x="500" y="400" as="targetPoint"/>
                    </mxGeometry>
                </mxCell>
                <mxCell id="38" value="PAIN" style="rounded=0;whiteSpace=wrap;html=1;fontFamily=JetBrains Mono;" vertex="1" parent="1">
                    <mxGeometry x="320" y="240" width="80" height="40" as="geometry"/>
                </mxCell>
                <mxCell id="39" value="" style="endArrow=classic;html=1;exitX=0.5;exitY=1;exitDx=0;exitDy=0;entryX=0.5;entryY=0;entryDx=0;entryDy=0;fontFamily=JetBrains Mono;" edge="1" parent="1" source="38" target="36">
                    <mxGeometry width="50" height="50" relative="1" as="geometry">
                        <mxPoint x="450" y="370" as="sourcePoint"/>
                        <mxPoint x="360" y="320" as="targetPoint"/>
                    </mxGeometry>
                </mxCell>
                <mxCell id="45" value="PAIN" style="shape=cylinder3;whiteSpace=wrap;html=1;boundedLbl=1;backgroundOutline=1;size=15;fontFamily=JetBrains Mono;" vertex="1" parent="1">
                    <mxGeometry x="480" y="80" width="80" height="80" as="geometry"/>
                </mxCell>
                <mxCell id="46" value="PAIN" style="rounded=0;whiteSpace=wrap;html=1;fontFamily=JetBrains Mono;" vertex="1" parent="1">
                    <mxGeometry x="480" width="80" height="40" as="geometry"/>
                </mxCell>
                <mxCell id="47" value="" style="endArrow=classic;html=1;exitX=0.5;exitY=1;exitDx=0;exitDy=0;entryX=0.5;entryY=0;entryDx=0;entryDy=0;entryPerimeter=0;fontFamily=JetBrains Mono;" edge="1" parent="1" source="46" target="45">
                    <mxGeometry width="50" height="50" relative="1" as="geometry">
                        <mxPoint x="610" y="130" as="sourcePoint"/>
                        <mxPoint x="660" y="80" as="targetPoint"/>
                    </mxGeometry>
                </mxCell>
                <mxCell id="48" value="" style="shape=cylinder3;whiteSpace=wrap;html=1;boundedLbl=1;backgroundOutline=1;size=15;fontFamily=JetBrains Mono;" vertex="1" parent="1">
                    <mxGeometry x="600" y="80" width="80" height="80" as="geometry"/>
                </mxCell>
                <mxCell id="49" value="PAIN" style="rounded=0;whiteSpace=wrap;html=1;fontFamily=JetBrains Mono;" vertex="1" parent="1">
                    <mxGeometry x="600" width="80" height="40" as="geometry"/>
                </mxCell>
                <mxCell id="50" value="" style="endArrow=classic;html=1;exitX=0.5;exitY=1;exitDx=0;exitDy=0;entryX=0.5;entryY=0;entryDx=0;entryDy=0;entryPerimeter=0;fontFamily=JetBrains Mono;" edge="1" parent="1" source="49" target="48">
                    <mxGeometry width="50" height="50" relative="1" as="geometry">
                        <mxPoint x="730" y="130" as="sourcePoint"/>
                        <mxPoint x="780" y="80" as="targetPoint"/>
                    </mxGeometry>
                </mxCell>
                <mxCell id="51" value="" style="endArrow=classic;html=1;entryX=0.5;entryY=0;entryDx=0;entryDy=0;entryPerimeter=0;exitX=0.25;exitY=1;exitDx=0;exitDy=0;fontFamily=JetBrains Mono;" edge="1" parent="1" source="49" target="45">
                    <mxGeometry width="50" height="50" relative="1" as="geometry">
                        <mxPoint x="640" y="40" as="sourcePoint"/>
                        <mxPoint x="650" y="90" as="targetPoint"/>
                    </mxGeometry>
                </mxCell>
                <mxCell id="54" value="" style="rounded=0;whiteSpace=wrap;html=1;fontFamily=JetBrains Mono;" vertex="1" parent="1">
                    <mxGeometry y="1040" width="80" height="40" as="geometry"/>
                </mxCell>
                <mxCell id="57" value="" style="rounded=0;whiteSpace=wrap;html=1;fontFamily=JetBrains Mono;" vertex="1" parent="1">
                    <mxGeometry x="120" y="1040" width="80" height="40" as="geometry"/>
                </mxCell>
                <mxCell id="61" value="" style="rounded=0;whiteSpace=wrap;html=1;fontFamily=JetBrains Mono;" vertex="1" parent="1">
                    <mxGeometry x="240" y="1040" width="80" height="40" as="geometry"/>
                </mxCell>
                <mxCell id="63" value="PAIN" style="rounded=0;whiteSpace=wrap;html=1;fontFamily=JetBrains Mono;" vertex="1" parent="1">
                    <mxGeometry x="80" y="920" width="160" height="40" as="geometry"/>
                </mxCell>
                <mxCell id="64" value="" style="endArrow=classic;html=1;exitX=0.25;exitY=1;exitDx=0;exitDy=0;entryX=0.5;entryY=0;entryDx=0;entryDy=0;fontFamily=JetBrains Mono;" edge="1" parent="1" source="63" target="54">
                    <mxGeometry width="50" height="50" relative="1" as="geometry">
                        <mxPoint x="50" y="1090" as="sourcePoint"/>
                        <mxPoint x="50" y="1130" as="targetPoint"/>
                    </mxGeometry>
                </mxCell>
                <mxCell id="65" value="" style="endArrow=classic;html=1;entryX=0.5;entryY=0;entryDx=0;entryDy=0;fontFamily=JetBrains Mono;" edge="1" parent="1" target="57">
                    <mxGeometry width="50" height="50" relative="1" as="geometry">
                        <mxPoint x="160" y="960" as="sourcePoint"/>
                        <mxPoint x="50" y="1050" as="targetPoint"/>
                    </mxGeometry>
                </mxCell>
                <mxCell id="66" value="" style="endArrow=classic;html=1;entryX=0.5;entryY=0;entryDx=0;entryDy=0;exitX=0.75;exitY=1;exitDx=0;exitDy=0;fontFamily=JetBrains Mono;" edge="1" parent="1" source="63" target="61">
                    <mxGeometry width="50" height="50" relative="1" as="geometry">
                        <mxPoint x="170" y="970" as="sourcePoint"/>
                        <mxPoint x="170" y="1050" as="targetPoint"/>
                    </mxGeometry>
                </mxCell>
                <mxCell id="67" value="&lt;meta charset=&quot;utf-8&quot;&gt;&lt;span style=&quot;color: rgb(0, 0, 0); font-family: helvetica; font-size: 12px; font-style: normal; font-weight: 400; letter-spacing: normal; text-align: center; text-indent: 0px; text-transform: none; word-spacing: 0px; background-color: rgb(248, 249, 250); display: inline; float: none;&quot;&gt;PAIN&lt;/span&gt;" style="shape=cylinder3;whiteSpace=wrap;html=1;boundedLbl=1;backgroundOutline=1;size=15;fontFamily=JetBrains Mono;" vertex="1" parent="1">
                    <mxGeometry x="1241" y="1126" width="80" height="80" as="geometry"/>
                </mxCell>
                <mxCell id="68" value="&lt;meta charset=&quot;utf-8&quot;&gt;&lt;span style=&quot;color: rgb(0, 0, 0); font-family: helvetica; font-size: 12px; font-style: normal; font-weight: 400; letter-spacing: normal; text-align: center; text-indent: 0px; text-transform: none; word-spacing: 0px; background-color: rgb(248, 249, 250); display: inline; float: none;&quot;&gt;PAIN&lt;/span&gt;" style="rounded=0;whiteSpace=wrap;html=1;fontFamily=JetBrains Mono;" vertex="1" parent="1">
                    <mxGeometry x="1241" y="1046" width="80" height="40" as="geometry"/>
                </mxCell>
                <mxCell id="69" value="" style="endArrow=classic;html=1;exitX=0.5;exitY=1;exitDx=0;exitDy=0;entryX=0.5;entryY=0;entryDx=0;entryDy=0;entryPerimeter=0;fontFamily=JetBrains Mono;" edge="1" parent="1" source="68" target="67">
                    <mxGeometry width="50" height="50" relative="1" as="geometry">
                        <mxPoint x="1371" y="1176" as="sourcePoint"/>
                        <mxPoint x="1421" y="1126" as="targetPoint"/>
                    </mxGeometry>
                </mxCell>
                <mxCell id="70" value="&lt;meta charset=&quot;utf-8&quot;&gt;&lt;span style=&quot;color: rgb(0, 0, 0); font-family: helvetica; font-size: 12px; font-style: normal; font-weight: 400; letter-spacing: normal; text-align: center; text-indent: 0px; text-transform: none; word-spacing: 0px; background-color: rgb(248, 249, 250); display: inline; float: none;&quot;&gt;PAIN&lt;/span&gt;" style="shape=cylinder3;whiteSpace=wrap;html=1;boundedLbl=1;backgroundOutline=1;size=15;fontFamily=JetBrains Mono;" vertex="1" parent="1">
                    <mxGeometry x="1361" y="1126" width="80" height="80" as="geometry"/>
                </mxCell>
                <mxCell id="71" value="&lt;meta charset=&quot;utf-8&quot;&gt;&lt;span style=&quot;color: rgb(0, 0, 0); font-family: helvetica; font-size: 12px; font-style: normal; font-weight: 400; letter-spacing: normal; text-align: center; text-indent: 0px; text-transform: none; word-spacing: 0px; background-color: rgb(248, 249, 250); display: inline; float: none;&quot;&gt;PAIN&lt;/span&gt;" style="rounded=0;whiteSpace=wrap;html=1;fontFamily=JetBrains Mono;" vertex="1" parent="1">
                    <mxGeometry x="1361" y="1046" width="80" height="40" as="geometry"/>
                </mxCell>
                <mxCell id="72" value="" style="endArrow=classic;html=1;exitX=0.5;exitY=1;exitDx=0;exitDy=0;entryX=0.5;entryY=0;entryDx=0;entryDy=0;entryPerimeter=0;fontFamily=JetBrains Mono;" edge="1" parent="1" source="71" target="70">
                    <mxGeometry width="50" height="50" relative="1" as="geometry">
                        <mxPoint x="1491" y="1176" as="sourcePoint"/>
                        <mxPoint x="1541" y="1126" as="targetPoint"/>
                    </mxGeometry>
                </mxCell>
                <mxCell id="73" value="&lt;meta charset=&quot;utf-8&quot;&gt;&lt;span style=&quot;color: rgb(0, 0, 0); font-family: helvetica; font-size: 12px; font-style: normal; font-weight: 400; letter-spacing: normal; text-align: center; text-indent: 0px; text-transform: none; word-spacing: 0px; background-color: rgb(248, 249, 250); display: inline; float: none;&quot;&gt;PAIN&lt;/span&gt;" style="shape=cylinder3;whiteSpace=wrap;html=1;boundedLbl=1;backgroundOutline=1;size=15;fontFamily=JetBrains Mono;" vertex="1" parent="1">
                    <mxGeometry x="1481" y="1126" width="80" height="80" as="geometry"/>
                </mxCell>
                <mxCell id="74" value="&lt;meta charset=&quot;utf-8&quot;&gt;&lt;span style=&quot;color: rgb(0, 0, 0); font-family: helvetica; font-size: 12px; font-style: normal; font-weight: 400; letter-spacing: normal; text-align: center; text-indent: 0px; text-transform: none; word-spacing: 0px; background-color: rgb(248, 249, 250); display: inline; float: none;&quot;&gt;PAIN&lt;/span&gt;" style="rounded=0;whiteSpace=wrap;html=1;fontFamily=JetBrains Mono;" vertex="1" parent="1">
                    <mxGeometry x="1481" y="1046" width="80" height="40" as="geometry"/>
                </mxCell>
                <mxCell id="75" value="" style="endArrow=classic;html=1;exitX=0.5;exitY=1;exitDx=0;exitDy=0;entryX=0.5;entryY=0;entryDx=0;entryDy=0;entryPerimeter=0;fontFamily=JetBrains Mono;" edge="1" parent="1" source="74" target="73">
                    <mxGeometry width="50" height="50" relative="1" as="geometry">
                        <mxPoint x="1611" y="1176" as="sourcePoint"/>
                        <mxPoint x="1661" y="1126" as="targetPoint"/>
                    </mxGeometry>
                </mxCell>
                <mxCell id="76" value="PAIN" style="rounded=0;whiteSpace=wrap;html=1;fontFamily=JetBrains Mono;" vertex="1" parent="1">
                    <mxGeometry x="1321" y="926" width="160" height="40" as="geometry"/>
                </mxCell>
                <mxCell id="77" value="" style="endArrow=classic;html=1;exitX=0.25;exitY=1;exitDx=0;exitDy=0;entryX=0.5;entryY=0;entryDx=0;entryDy=0;fontFamily=JetBrains Mono;" edge="1" parent="1" source="76" target="68">
                    <mxGeometry width="50" height="50" relative="1" as="geometry">
                        <mxPoint x="1291" y="1096" as="sourcePoint"/>
                        <mxPoint x="1291" y="1136" as="targetPoint"/>
                    </mxGeometry>
                </mxCell>
                <mxCell id="78" value="" style="endArrow=classic;html=1;entryX=0.5;entryY=0;entryDx=0;entryDy=0;fontFamily=JetBrains Mono;" edge="1" parent="1" target="71">
                    <mxGeometry width="50" height="50" relative="1" as="geometry">
                        <mxPoint x="1401" y="966" as="sourcePoint"/>
                        <mxPoint x="1291" y="1056" as="targetPoint"/>
                    </mxGeometry>
                </mxCell>
                <mxCell id="79" value="" style="endArrow=classic;html=1;entryX=0.5;entryY=0;entryDx=0;entryDy=0;exitX=0.75;exitY=1;exitDx=0;exitDy=0;fontFamily=JetBrains Mono;" edge="1" parent="1" source="76" target="74">
                    <mxGeometry width="50" height="50" relative="1" as="geometry">
                        <mxPoint x="1411" y="976" as="sourcePoint"/>
                        <mxPoint x="1411" y="1056" as="targetPoint"/>
                    </mxGeometry>
                </mxCell>
                <mxCell id="80" value="" style="endArrow=classic;html=1;entryX=1;entryY=0.5;entryDx=0;entryDy=0;entryPerimeter=0;exitX=0.25;exitY=1;exitDx=0;exitDy=0;fontFamily=JetBrains Mono;" edge="1" parent="1" source="76" target="67">
                    <mxGeometry width="50" height="50" relative="1" as="geometry">
                        <mxPoint x="1401" y="966" as="sourcePoint"/>
                        <mxPoint x="1291" y="1056.0000000000005" as="targetPoint"/>
                    </mxGeometry>
                </mxCell>
                <mxCell id="81" value="" style="endArrow=classic;html=1;entryX=0;entryY=0;entryDx=0;entryDy=27.5;entryPerimeter=0;exitX=0.75;exitY=1;exitDx=0;exitDy=0;fontFamily=JetBrains Mono;" edge="1" parent="1" source="76" target="73">
                    <mxGeometry width="50" height="50" relative="1" as="geometry">
                        <mxPoint x="1371" y="976" as="sourcePoint"/>
                        <mxPoint x="1331" y="1176" as="targetPoint"/>
                    </mxGeometry>
                </mxCell>
                <mxCell id="82" value="" style="endArrow=classic;html=1;exitX=0.25;exitY=1;exitDx=0;exitDy=0;entryX=1;entryY=0.5;entryDx=0;entryDy=0;entryPerimeter=0;fontFamily=JetBrains Mono;" edge="1" parent="1" source="71" target="67">
                    <mxGeometry width="50" height="50" relative="1" as="geometry">
                        <mxPoint x="1291" y="1096" as="sourcePoint"/>
                        <mxPoint x="1291" y="1136" as="targetPoint"/>
                    </mxGeometry>
                </mxCell>
                <mxCell id="83" value="" style="endArrow=classic;html=1;exitX=0.25;exitY=1;exitDx=0;exitDy=0;entryX=1;entryY=0;entryDx=0;entryDy=27.5;entryPerimeter=0;fontFamily=JetBrains Mono;" edge="1" parent="1" source="74" target="70">
                    <mxGeometry width="50" height="50" relative="1" as="geometry">
                        <mxPoint x="1411" y="1096" as="sourcePoint"/>
                        <mxPoint x="1331" y="1176" as="targetPoint"/>
                    </mxGeometry>
                </mxCell>
                <mxCell id="98" value="PAIN" style="rounded=0;whiteSpace=wrap;html=1;fontFamily=JetBrains Mono;" vertex="1" parent="1">
                    <mxGeometry x="440" y="1040" width="80" height="40" as="geometry"/>
                </mxCell>
                <mxCell id="101" value="PAIN" style="rounded=0;whiteSpace=wrap;html=1;fontFamily=JetBrains Mono;" vertex="1" parent="1">
                    <mxGeometry x="560" y="1040" width="80" height="40" as="geometry"/>
                </mxCell>
                <mxCell id="104" value="PAIN" style="rounded=0;whiteSpace=wrap;html=1;fontFamily=JetBrains Mono;" vertex="1" parent="1">
                    <mxGeometry x="680" y="1040" width="80" height="40" as="geometry"/>
                </mxCell>
                <mxCell id="106" value="" style="rounded=0;whiteSpace=wrap;html=1;fontFamily=JetBrains Mono;" vertex="1" parent="1">
                    <mxGeometry x="520" y="920" width="160" height="40" as="geometry"/>
                </mxCell>
                <mxCell id="107" value="" style="endArrow=classic;html=1;exitX=0.25;exitY=1;exitDx=0;exitDy=0;entryX=0.5;entryY=0;entryDx=0;entryDy=0;fontFamily=JetBrains Mono;" edge="1" parent="1" source="106" target="98">
                    <mxGeometry width="50" height="50" relative="1" as="geometry">
                        <mxPoint x="490" y="1090" as="sourcePoint"/>
                        <mxPoint x="490" y="1130" as="targetPoint"/>
                    </mxGeometry>
                </mxCell>
                <mxCell id="108" value="" style="endArrow=classic;html=1;entryX=0.5;entryY=0;entryDx=0;entryDy=0;fontFamily=JetBrains Mono;" edge="1" parent="1" target="101">
                    <mxGeometry width="50" height="50" relative="1" as="geometry">
                        <mxPoint x="600" y="960" as="sourcePoint"/>
                        <mxPoint x="490" y="1050" as="targetPoint"/>
                    </mxGeometry>
                </mxCell>
                <mxCell id="109" value="" style="endArrow=classic;html=1;entryX=0.5;entryY=0;entryDx=0;entryDy=0;exitX=0.75;exitY=1;exitDx=0;exitDy=0;fontFamily=JetBrains Mono;" edge="1" parent="1" source="106" target="104">
                    <mxGeometry width="50" height="50" relative="1" as="geometry">
                        <mxPoint x="610" y="970" as="sourcePoint"/>
                        <mxPoint x="610" y="1050" as="targetPoint"/>
                    </mxGeometry>
                </mxCell>
                <mxCell id="111" value="PAIN" style="rounded=0;whiteSpace=wrap;html=1;fontFamily=JetBrains Mono;" vertex="1" parent="1">
                    <mxGeometry y="520" width="80" height="40" as="geometry"/>
                </mxCell>
                <mxCell id="114" value="" style="rounded=0;whiteSpace=wrap;html=1;fontFamily=JetBrains Mono;" vertex="1" parent="1">
                    <mxGeometry x="200" y="520" width="80" height="40" as="geometry"/>
                </mxCell>
                <mxCell id="116" value="PAIN" style="shape=cylinder3;whiteSpace=wrap;html=1;boundedLbl=1;backgroundOutline=1;size=15;fontFamily=JetBrains Mono;rotation=90;horizontal=0;" vertex="1" parent="1">
                    <mxGeometry x="120" y="500" width="40" height="80" as="geometry"/>
                </mxCell>
                <mxCell id="117" value="" style="endArrow=classic;html=1;exitX=1;exitY=0.5;exitDx=0;exitDy=0;entryX=0.5;entryY=1;entryDx=0;entryDy=0;entryPerimeter=0;fontFamily=JetBrains Mono;" edge="1" parent="1" source="111" target="116">
                    <mxGeometry width="50" height="50" relative="1" as="geometry">
                        <mxPoint x="50" y="370" as="sourcePoint"/>
                        <mxPoint x="50" y="410" as="targetPoint"/>
                    </mxGeometry>
                </mxCell>
                <mxCell id="118" value="" style="endArrow=classic;html=1;exitX=0.5;exitY=0;exitDx=0;exitDy=0;entryX=0;entryY=0.5;entryDx=0;entryDy=0;fontFamily=JetBrains Mono;exitPerimeter=0;" edge="1" parent="1" source="116" target="114">
                    <mxGeometry width="50" height="50" relative="1" as="geometry">
                        <mxPoint x="90" y="550" as="sourcePoint"/>
                        <mxPoint x="110" y="550" as="targetPoint"/>
                    </mxGeometry>
                </mxCell>
                <mxCell id="147" value="" style="rounded=0;whiteSpace=wrap;html=1;fontFamily=JetBrains Mono;" vertex="1" parent="1">
                    <mxGeometry x="360" y="520" width="80" height="40" as="geometry"/>
                </mxCell>
                <mxCell id="150" value="PAIN" style="rounded=0;whiteSpace=wrap;html=1;fontFamily=JetBrains Mono;" vertex="1" parent="1">
                    <mxGeometry x="560" y="520" width="80" height="40" as="geometry"/>
                </mxCell>
                <mxCell id="152" value="" style="shape=cylinder3;whiteSpace=wrap;html=1;boundedLbl=1;backgroundOutline=1;size=15;fontFamily=JetBrains Mono;rotation=90;horizontal=0;" vertex="1" parent="1">
                    <mxGeometry x="480" y="500" width="40" height="80" as="geometry"/>
                </mxCell>
                <mxCell id="153" value="" style="endArrow=classic;html=1;exitX=1;exitY=0.5;exitDx=0;exitDy=0;entryX=0.5;entryY=1;entryDx=0;entryDy=0;entryPerimeter=0;fontFamily=JetBrains Mono;" edge="1" parent="1" source="147" target="152">
                    <mxGeometry width="50" height="50" relative="1" as="geometry">
                        <mxPoint x="410" y="370" as="sourcePoint"/>
                        <mxPoint x="410" y="410" as="targetPoint"/>
                    </mxGeometry>
                </mxCell>
                <mxCell id="154" value="" style="endArrow=classic;html=1;exitX=0.5;exitY=0;exitDx=0;exitDy=0;entryX=0;entryY=0.5;entryDx=0;entryDy=0;fontFamily=JetBrains Mono;exitPerimeter=0;" edge="1" parent="1" source="152" target="150">
                    <mxGeometry width="50" height="50" relative="1" as="geometry">
                        <mxPoint x="450" y="550" as="sourcePoint"/>
                        <mxPoint x="470" y="550" as="targetPoint"/>
                    </mxGeometry>
                </mxCell>
                <mxCell id="156" value="PAIN" style="rounded=0;whiteSpace=wrap;html=1;fontFamily=JetBrains Mono;" vertex="1" parent="1">
                    <mxGeometry x="360" y="600" width="80" height="40" as="geometry"/>
                </mxCell>
                <mxCell id="159" value="PAIN" style="rounded=0;whiteSpace=wrap;html=1;fontFamily=JetBrains Mono;" vertex="1" parent="1">
                    <mxGeometry x="560" y="600" width="80" height="40" as="geometry"/>
                </mxCell>
                <mxCell id="161" value="PAIN" style="shape=cylinder3;whiteSpace=wrap;html=1;boundedLbl=1;backgroundOutline=1;size=15;fontFamily=JetBrains Mono;rotation=90;horizontal=0;" vertex="1" parent="1">
                    <mxGeometry x="480" y="580" width="40" height="80" as="geometry"/>
                </mxCell>
                <mxCell id="162" value="" style="endArrow=classic;html=1;exitX=1;exitY=0.5;exitDx=0;exitDy=0;entryX=0.5;entryY=1;entryDx=0;entryDy=0;entryPerimeter=0;fontFamily=JetBrains Mono;" edge="1" parent="1" source="156" target="161">
                    <mxGeometry width="50" height="50" relative="1" as="geometry">
                        <mxPoint x="410" y="450" as="sourcePoint"/>
                        <mxPoint x="410" y="490" as="targetPoint"/>
                    </mxGeometry>
                </mxCell>
                <mxCell id="163" value="" style="endArrow=classic;html=1;exitX=0.5;exitY=0;exitDx=0;exitDy=0;entryX=0;entryY=0.5;entryDx=0;entryDy=0;fontFamily=JetBrains Mono;exitPerimeter=0;" edge="1" parent="1" source="161" target="159">
                    <mxGeometry width="50" height="50" relative="1" as="geometry">
                        <mxPoint x="450" y="630" as="sourcePoint"/>
                        <mxPoint x="470" y="630" as="targetPoint"/>
                    </mxGeometry>
                </mxCell>
                <mxCell id="164" value="PAIN" style="rounded=0;whiteSpace=wrap;html=1;fontFamily=JetBrains Mono;" vertex="1" parent="1">
                    <mxGeometry y="600" width="80" height="40" as="geometry"/>
                </mxCell>
                <mxCell id="165" value="PAIN" style="rounded=0;whiteSpace=wrap;html=1;fontFamily=JetBrains Mono;" vertex="1" parent="1">
                    <mxGeometry x="200" y="600" width="80" height="40" as="geometry"/>
                </mxCell>
                <mxCell id="166" value="" style="shape=cylinder3;whiteSpace=wrap;html=1;boundedLbl=1;backgroundOutline=1;size=15;fontFamily=JetBrains Mono;rotation=90;horizontal=0;" vertex="1" parent="1">
                    <mxGeometry x="120" y="580" width="40" height="80" as="geometry"/>
                </mxCell>
                <mxCell id="167" value="" style="endArrow=classic;html=1;exitX=1;exitY=0.5;exitDx=0;exitDy=0;entryX=0.5;entryY=1;entryDx=0;entryDy=0;entryPerimeter=0;fontFamily=JetBrains Mono;" edge="1" parent="1" source="164" target="166">
                    <mxGeometry width="50" height="50" relative="1" as="geometry">
                        <mxPoint x="50" y="450" as="sourcePoint"/>
                        <mxPoint x="50" y="490" as="targetPoint"/>
                    </mxGeometry>
                </mxCell>
                <mxCell id="168" value="" style="endArrow=classic;html=1;exitX=0.5;exitY=0;exitDx=0;exitDy=0;entryX=0;entryY=0.5;entryDx=0;entryDy=0;fontFamily=JetBrains Mono;exitPerimeter=0;" edge="1" parent="1" source="166" target="165">
                    <mxGeometry width="50" height="50" relative="1" as="geometry">
                        <mxPoint x="90" y="630" as="sourcePoint"/>
                        <mxPoint x="110" y="630" as="targetPoint"/>
                    </mxGeometry>
                </mxCell>
                <mxCell id="169" value="PAIN" style="rounded=0;whiteSpace=wrap;html=1;fontFamily=JetBrains Mono;" vertex="1" parent="1">
                    <mxGeometry x="-10" y="720" width="80" height="40" as="geometry"/>
                </mxCell>
                <mxCell id="170" value="" style="rounded=0;whiteSpace=wrap;html=1;fontFamily=JetBrains Mono;" vertex="1" parent="1">
                    <mxGeometry x="190" y="760" width="80" height="40" as="geometry"/>
                </mxCell>
                <mxCell id="171" value="" style="shape=cylinder3;whiteSpace=wrap;html=1;boundedLbl=1;backgroundOutline=1;size=15;fontFamily=JetBrains Mono;rotation=90;horizontal=0;" vertex="1" parent="1">
                    <mxGeometry x="110" y="740" width="40" height="80" as="geometry"/>
                </mxCell>
                <mxCell id="172" value="" style="endArrow=classic;html=1;exitX=1;exitY=0.5;exitDx=0;exitDy=0;entryX=0.5;entryY=1;entryDx=0;entryDy=0;entryPerimeter=0;fontFamily=JetBrains Mono;" edge="1" parent="1" source="169" target="171">
                    <mxGeometry width="50" height="50" relative="1" as="geometry">
                        <mxPoint x="40" y="570" as="sourcePoint"/>
                        <mxPoint x="40" y="610" as="targetPoint"/>
                    </mxGeometry>
                </mxCell>
                <mxCell id="173" value="" style="endArrow=classic;html=1;exitX=0.5;exitY=0;exitDx=0;exitDy=0;entryX=0;entryY=0.5;entryDx=0;entryDy=0;fontFamily=JetBrains Mono;exitPerimeter=0;" edge="1" parent="1" source="171" target="170">
                    <mxGeometry width="50" height="50" relative="1" as="geometry">
                        <mxPoint x="80" y="750" as="sourcePoint"/>
                        <mxPoint x="100" y="750" as="targetPoint"/>
                    </mxGeometry>
                </mxCell>
                <mxCell id="174" value="PAIN" style="rounded=0;whiteSpace=wrap;html=1;fontFamily=JetBrains Mono;" vertex="1" parent="1">
                    <mxGeometry x="-10" y="800" width="80" height="40" as="geometry"/>
                </mxCell>
                <mxCell id="175" value="" style="endArrow=classic;html=1;exitX=1;exitY=0.5;exitDx=0;exitDy=0;entryX=0.5;entryY=1;entryDx=0;entryDy=0;entryPerimeter=0;fontFamily=JetBrains Mono;" edge="1" parent="1" source="174" target="171">
                    <mxGeometry width="50" height="50" relative="1" as="geometry">
                        <mxPoint x="80.00000000000011" y="749.9999999999998" as="sourcePoint"/>
                        <mxPoint x="120.00000000000011" y="789.9999999999998" as="targetPoint"/>
                    </mxGeometry>
                </mxCell>
                <mxCell id="176" value="" style="rounded=0;whiteSpace=wrap;html=1;fontFamily=JetBrains Mono;" vertex="1" parent="1">
                    <mxGeometry x="350" y="720" width="80" height="40" as="geometry"/>
                </mxCell>
                <mxCell id="177" value="PAIN" style="rounded=0;whiteSpace=wrap;html=1;fontFamily=JetBrains Mono;" vertex="1" parent="1">
                    <mxGeometry x="560" y="760" width="80" height="40" as="geometry"/>
                </mxCell>
                <mxCell id="178" value="" style="shape=cylinder3;whiteSpace=wrap;html=1;boundedLbl=1;backgroundOutline=1;size=15;fontFamily=JetBrains Mono;rotation=90;horizontal=0;" vertex="1" parent="1">
                    <mxGeometry x="490" y="740" width="40" height="80" as="geometry"/>
                </mxCell>
                <mxCell id="179" value="" style="endArrow=classic;html=1;exitX=1;exitY=0.5;exitDx=0;exitDy=0;entryX=0.5;entryY=1;entryDx=0;entryDy=0;entryPerimeter=0;fontFamily=JetBrains Mono;" edge="1" parent="1" source="176" target="178">
                    <mxGeometry width="50" height="50" relative="1" as="geometry">
                        <mxPoint x="400" y="570" as="sourcePoint"/>
                        <mxPoint x="400" y="610" as="targetPoint"/>
                    </mxGeometry>
                </mxCell>
                <mxCell id="180" value="" style="endArrow=classic;html=1;exitX=0.5;exitY=0;exitDx=0;exitDy=0;entryX=0;entryY=0.5;entryDx=0;entryDy=0;fontFamily=JetBrains Mono;exitPerimeter=0;" edge="1" parent="1" source="178" target="177">
                    <mxGeometry width="50" height="50" relative="1" as="geometry">
                        <mxPoint x="440" y="750" as="sourcePoint"/>
                        <mxPoint x="460" y="750" as="targetPoint"/>
                    </mxGeometry>
                </mxCell>
                <mxCell id="181" value="" style="rounded=0;whiteSpace=wrap;html=1;fontFamily=JetBrains Mono;" vertex="1" parent="1">
                    <mxGeometry x="350" y="800" width="80" height="40" as="geometry"/>
                </mxCell>
                <mxCell id="182" value="" style="endArrow=classic;html=1;exitX=1;exitY=0.5;exitDx=0;exitDy=0;entryX=0.5;entryY=1;entryDx=0;entryDy=0;entryPerimeter=0;fontFamily=JetBrains Mono;" edge="1" parent="1" source="181" target="178">
                    <mxGeometry width="50" height="50" relative="1" as="geometry">
                        <mxPoint x="440.0000000000001" y="749.9999999999998" as="sourcePoint"/>
                        <mxPoint x="480.0000000000001" y="789.9999999999998" as="targetPoint"/>
                    </mxGeometry>
                </mxCell>
                <mxCell id="183" value="PAIN" style="rounded=0;whiteSpace=wrap;html=1;fontFamily=JetBrains Mono;" vertex="1" parent="1">
                    <mxGeometry x="720" y="720" width="80" height="40" as="geometry"/>
                </mxCell>
                <mxCell id="185" value="" style="shape=cylinder3;whiteSpace=wrap;html=1;boundedLbl=1;backgroundOutline=1;size=15;fontFamily=JetBrains Mono;rotation=90;horizontal=0;" vertex="1" parent="1">
                    <mxGeometry x="840" y="740" width="40" height="80" as="geometry"/>
                </mxCell>
                <mxCell id="186" value="" style="endArrow=classic;html=1;exitX=1;exitY=0.5;exitDx=0;exitDy=0;entryX=0.5;entryY=1;entryDx=0;entryDy=0;entryPerimeter=0;fontFamily=JetBrains Mono;" edge="1" parent="1" source="183" target="185">
                    <mxGeometry width="50" height="50" relative="1" as="geometry">
                        <mxPoint x="770" y="570" as="sourcePoint"/>
                        <mxPoint x="770" y="610" as="targetPoint"/>
                    </mxGeometry>
                </mxCell>
                <mxCell id="187" value="" style="endArrow=classic;html=1;exitX=0.5;exitY=0;exitDx=0;exitDy=0;entryX=0;entryY=0.5;entryDx=0;entryDy=0;fontFamily=JetBrains Mono;exitPerimeter=0;" edge="1" parent="1" source="185" target="190">
                    <mxGeometry width="50" height="50" relative="1" as="geometry">
                        <mxPoint x="810" y="750" as="sourcePoint"/>
                        <mxPoint x="940" y="779.9999999999998" as="targetPoint"/>
                    </mxGeometry>
                </mxCell>
                <mxCell id="188" value="PAIN" style="rounded=0;whiteSpace=wrap;html=1;fontFamily=JetBrains Mono;" vertex="1" parent="1">
                    <mxGeometry x="720" y="800" width="80" height="40" as="geometry"/>
                </mxCell>
                <mxCell id="189" value="" style="endArrow=classic;html=1;exitX=1;exitY=0.5;exitDx=0;exitDy=0;entryX=0.5;entryY=1;entryDx=0;entryDy=0;entryPerimeter=0;fontFamily=JetBrains Mono;" edge="1" parent="1" source="188" target="185">
                    <mxGeometry width="50" height="50" relative="1" as="geometry">
                        <mxPoint x="810.0000000000001" y="749.9999999999998" as="sourcePoint"/>
                        <mxPoint x="850.0000000000001" y="789.9999999999998" as="targetPoint"/>
                    </mxGeometry>
                </mxCell>
                <mxCell id="190" value="PAIN" style="rounded=0;whiteSpace=wrap;html=1;fontFamily=JetBrains Mono;" vertex="1" parent="1">
                    <mxGeometry x="920" y="720" width="80" height="40" as="geometry"/>
                </mxCell>
                <mxCell id="191" value="PAIN" style="rounded=0;whiteSpace=wrap;html=1;fontFamily=JetBrains Mono;" vertex="1" parent="1">
                    <mxGeometry x="920" y="800" width="80" height="40" as="geometry"/>
                </mxCell>
                <mxCell id="192" value="" style="endArrow=classic;html=1;entryX=0;entryY=0.5;entryDx=0;entryDy=0;fontFamily=JetBrains Mono;" edge="1" parent="1" target="191">
                    <mxGeometry width="50" height="50" relative="1" as="geometry">
                        <mxPoint x="900" y="780" as="sourcePoint"/>
                        <mxPoint x="950" y="749.9999999999998" as="targetPoint"/>
                    </mxGeometry>
                </mxCell>
                <mxCell id="202" value="PAIN" style="rounded=0;whiteSpace=wrap;html=1;fontFamily=JetBrains Mono;" vertex="1" parent="1">
                    <mxGeometry x="720" y="560" width="80" height="40" as="geometry"/>
                </mxCell>
                <mxCell id="203" value="PAIN" style="rounded=0;whiteSpace=wrap;html=1;fontFamily=JetBrains Mono;" vertex="1" parent="1">
                    <mxGeometry x="920" y="560" width="80" height="40" as="geometry"/>
                </mxCell>
                <mxCell id="204" value="" style="shape=cylinder3;whiteSpace=wrap;html=1;boundedLbl=1;backgroundOutline=1;size=15;fontFamily=JetBrains Mono;rotation=90;horizontal=0;" vertex="1" parent="1">
                    <mxGeometry x="840" y="500" width="40" height="80" as="geometry"/>
                </mxCell>
                <mxCell id="205" value="" style="endArrow=classic;html=1;entryX=0.5;entryY=1;entryDx=0;entryDy=0;entryPerimeter=0;fontFamily=JetBrains Mono;" edge="1" parent="1" target="204">
                    <mxGeometry width="50" height="50" relative="1" as="geometry">
                        <mxPoint x="800" y="570" as="sourcePoint"/>
                        <mxPoint x="770" y="450" as="targetPoint"/>
                    </mxGeometry>
                </mxCell>
                <mxCell id="206" value="" style="endArrow=classic;html=1;exitX=0.5;exitY=0;exitDx=0;exitDy=0;fontFamily=JetBrains Mono;exitPerimeter=0;" edge="1" parent="1" source="204">
                    <mxGeometry width="50" height="50" relative="1" as="geometry">
                        <mxPoint x="810" y="590" as="sourcePoint"/>
                        <mxPoint x="920" y="570" as="targetPoint"/>
                    </mxGeometry>
                </mxCell>
                <mxCell id="207" value="" style="endArrow=classic;html=1;exitX=1;exitY=0.5;exitDx=0;exitDy=0;entryX=0;entryY=0.5;entryDx=0;entryDy=0;fontFamily=JetBrains Mono;" edge="1" parent="1" source="202" target="203">
                    <mxGeometry width="50" height="50" relative="1" as="geometry">
                        <mxPoint x="810" y="590" as="sourcePoint"/>
                        <mxPoint x="830" y="630" as="targetPoint"/>
                    </mxGeometry>
                </mxCell>
                <mxCell id="216" value="PAIN" style="shape=cylinder3;whiteSpace=wrap;html=1;boundedLbl=1;backgroundOutline=1;size=15;fontFamily=JetBrains Mono;" vertex="1" parent="1">
                    <mxGeometry x="760" y="80" width="80" height="80" as="geometry"/>
                </mxCell>
                <mxCell id="217" value="PAIN" style="rounded=0;whiteSpace=wrap;html=1;fontFamily=JetBrains Mono;" vertex="1" parent="1">
                    <mxGeometry x="760" width="80" height="40" as="geometry"/>
                </mxCell>
                <mxCell id="218" value="" style="endArrow=classic;html=1;exitX=0.5;exitY=1;exitDx=0;exitDy=0;entryX=0.5;entryY=0;entryDx=0;entryDy=0;entryPerimeter=0;fontFamily=JetBrains Mono;" edge="1" parent="1" source="217" target="216">
                    <mxGeometry width="50" height="50" relative="1" as="geometry">
                        <mxPoint x="890" y="130" as="sourcePoint"/>
                        <mxPoint x="940" y="80" as="targetPoint"/>
                    </mxGeometry>
                </mxCell>
                <mxCell id="219" value="" style="shape=cylinder3;whiteSpace=wrap;html=1;boundedLbl=1;backgroundOutline=1;size=15;fontFamily=JetBrains Mono;" vertex="1" parent="1">
                    <mxGeometry x="880" y="80" width="80" height="80" as="geometry"/>
                </mxCell>
                <mxCell id="220" value="PAIN" style="rounded=0;whiteSpace=wrap;html=1;fontFamily=JetBrains Mono;" vertex="1" parent="1">
                    <mxGeometry x="880" width="80" height="40" as="geometry"/>
                </mxCell>
                <mxCell id="221" value="" style="endArrow=classic;html=1;exitX=0.5;exitY=1;exitDx=0;exitDy=0;entryX=0.5;entryY=0;entryDx=0;entryDy=0;entryPerimeter=0;fontFamily=JetBrains Mono;" edge="1" parent="1" source="220" target="219">
                    <mxGeometry width="50" height="50" relative="1" as="geometry">
                        <mxPoint x="1010" y="130" as="sourcePoint"/>
                        <mxPoint x="1060" y="80" as="targetPoint"/>
                    </mxGeometry>
                </mxCell>
                <mxCell id="222" value="" style="endArrow=classic;html=1;entryX=0.5;entryY=0;entryDx=0;entryDy=0;entryPerimeter=0;exitX=0.25;exitY=1;exitDx=0;exitDy=0;fontFamily=JetBrains Mono;" edge="1" parent="1" source="220" target="216">
                    <mxGeometry width="50" height="50" relative="1" as="geometry">
                        <mxPoint x="920" y="40" as="sourcePoint"/>
                        <mxPoint x="930" y="90" as="targetPoint"/>
                    </mxGeometry>
                </mxCell>
                <mxCell id="223" value="" style="endArrow=classic;html=1;entryX=1;entryY=0.5;entryDx=0;entryDy=0;exitX=0;exitY=0.5;exitDx=0;exitDy=0;fontFamily=JetBrains Mono;" edge="1" parent="1" source="220" target="217">
                    <mxGeometry width="50" height="50" relative="1" as="geometry">
                        <mxPoint x="910.0000000000005" y="50" as="sourcePoint"/>
                        <mxPoint x="810.0000000000005" y="90" as="targetPoint"/>
                    </mxGeometry>
                </mxCell>
                <mxCell id="224" value="PAIN" style="shape=cylinder3;whiteSpace=wrap;html=1;boundedLbl=1;backgroundOutline=1;size=15;fontFamily=JetBrains Mono;" vertex="1" parent="1">
                    <mxGeometry x="1041" y="80" width="80" height="80" as="geometry"/>
                </mxCell>
                <mxCell id="225" value="PAIN" style="rounded=0;whiteSpace=wrap;html=1;fontFamily=JetBrains Mono;" vertex="1" parent="1">
                    <mxGeometry x="1041" width="80" height="40" as="geometry"/>
                </mxCell>
                <mxCell id="226" value="" style="endArrow=classic;html=1;exitX=0.5;exitY=1;exitDx=0;exitDy=0;entryX=0.5;entryY=0;entryDx=0;entryDy=0;entryPerimeter=0;fontFamily=JetBrains Mono;" edge="1" parent="1" source="225" target="224">
                    <mxGeometry width="50" height="50" relative="1" as="geometry">
                        <mxPoint x="1171" y="130" as="sourcePoint"/>
                        <mxPoint x="1221" y="80" as="targetPoint"/>
                    </mxGeometry>
                </mxCell>
                <mxCell id="227" value="PAIN" style="shape=cylinder3;whiteSpace=wrap;html=1;boundedLbl=1;backgroundOutline=1;size=15;fontFamily=JetBrains Mono;" vertex="1" parent="1">
                    <mxGeometry x="1161" y="80" width="80" height="80" as="geometry"/>
                </mxCell>
                <mxCell id="228" value="PAIN" style="rounded=0;whiteSpace=wrap;html=1;fontFamily=JetBrains Mono;" vertex="1" parent="1">
                    <mxGeometry x="1161" width="80" height="40" as="geometry"/>
                </mxCell>
                <mxCell id="229" value="" style="endArrow=classic;html=1;exitX=0.5;exitY=1;exitDx=0;exitDy=0;entryX=0.5;entryY=0;entryDx=0;entryDy=0;entryPerimeter=0;fontFamily=JetBrains Mono;" edge="1" parent="1" source="228" target="227">
                    <mxGeometry width="50" height="50" relative="1" as="geometry">
                        <mxPoint x="1291" y="130" as="sourcePoint"/>
                        <mxPoint x="1341" y="80" as="targetPoint"/>
                    </mxGeometry>
                </mxCell>
                <mxCell id="230" value="" style="endArrow=classic;html=1;entryX=0.5;entryY=0;entryDx=0;entryDy=0;entryPerimeter=0;exitX=0.25;exitY=1;exitDx=0;exitDy=0;fontFamily=JetBrains Mono;" edge="1" parent="1" source="228" target="224">
                    <mxGeometry width="50" height="50" relative="1" as="geometry">
                        <mxPoint x="1201" y="40" as="sourcePoint"/>
                        <mxPoint x="1211" y="90" as="targetPoint"/>
                    </mxGeometry>
                </mxCell>
                <mxCell id="231" value="" style="endArrow=classic;html=1;entryX=1;entryY=0.5;entryDx=0;entryDy=0;exitX=0;exitY=0.5;exitDx=0;exitDy=0;fontFamily=JetBrains Mono;" edge="1" parent="1" source="228" target="225">
                    <mxGeometry width="50" height="50" relative="1" as="geometry">
                        <mxPoint x="1191.0000000000005" y="50" as="sourcePoint"/>
                        <mxPoint x="1091.0000000000005" y="90" as="targetPoint"/>
                    </mxGeometry>
                </mxCell>
                <mxCell id="232" value="" style="endArrow=classic;html=1;entryX=0.145;entryY=0;entryDx=0;entryDy=4.35;exitX=0.75;exitY=1;exitDx=0;exitDy=0;fontFamily=JetBrains Mono;entryPerimeter=0;" edge="1" parent="1" source="225" target="227">
                    <mxGeometry width="50" height="50" relative="1" as="geometry">
                        <mxPoint x="1171" y="30" as="sourcePoint"/>
                        <mxPoint x="1131" y="30" as="targetPoint"/>
                    </mxGeometry>
                </mxCell>
                <mxCell id="233" value="PAIN" style="shape=cylinder3;whiteSpace=wrap;html=1;boundedLbl=1;backgroundOutline=1;size=15;fontFamily=JetBrains Mono;" vertex="1" parent="1">
                    <mxGeometry x="1080" y="640" width="80" height="80" as="geometry"/>
                </mxCell>
                <mxCell id="234" value="PAIN" style="rounded=0;whiteSpace=wrap;html=1;fontFamily=JetBrains Mono;" vertex="1" parent="1">
                    <mxGeometry x="1080" y="560" width="80" height="40" as="geometry"/>
                </mxCell>
                <mxCell id="235" value="" style="endArrow=classic;html=1;exitX=0.5;exitY=1;exitDx=0;exitDy=0;entryX=0.5;entryY=0;entryDx=0;entryDy=0;entryPerimeter=0;fontFamily=JetBrains Mono;" edge="1" parent="1" source="234" target="233">
                    <mxGeometry width="50" height="50" relative="1" as="geometry">
                        <mxPoint x="1210" y="650" as="sourcePoint"/>
                        <mxPoint x="1260" y="600" as="targetPoint"/>
                    </mxGeometry>
                </mxCell>
                <mxCell id="236" value="PAIN" style="shape=cylinder3;whiteSpace=wrap;html=1;boundedLbl=1;backgroundOutline=1;size=15;fontFamily=JetBrains Mono;" vertex="1" parent="1">
                    <mxGeometry x="1280" y="640" width="80" height="80" as="geometry"/>
                </mxCell>
                <mxCell id="237" value="PAIN" style="rounded=0;whiteSpace=wrap;html=1;fontFamily=JetBrains Mono;" vertex="1" parent="1">
                    <mxGeometry x="1280" y="560" width="80" height="40" as="geometry"/>
                </mxCell>
                <mxCell id="238" value="" style="endArrow=classic;html=1;exitX=0.5;exitY=1;exitDx=0;exitDy=0;entryX=0.5;entryY=0;entryDx=0;entryDy=0;entryPerimeter=0;fontFamily=JetBrains Mono;" edge="1" parent="1" source="237" target="236">
                    <mxGeometry width="50" height="50" relative="1" as="geometry">
                        <mxPoint x="1330" y="650" as="sourcePoint"/>
                        <mxPoint x="1380" y="600" as="targetPoint"/>
                    </mxGeometry>
                </mxCell>
                <mxCell id="239" value="" style="endArrow=classic;html=1;entryX=0.5;entryY=0;entryDx=0;entryDy=0;entryPerimeter=0;exitX=0.25;exitY=1;exitDx=0;exitDy=0;fontFamily=JetBrains Mono;" edge="1" parent="1" source="237" target="233">
                    <mxGeometry width="50" height="50" relative="1" as="geometry">
                        <mxPoint x="1240" y="560" as="sourcePoint"/>
                        <mxPoint x="1250" y="610" as="targetPoint"/>
                    </mxGeometry>
                </mxCell>
                <mxCell id="240" value="" style="endArrow=none;html=1;entryX=1;entryY=0.5;entryDx=0;entryDy=0;exitX=0;exitY=0.5;exitDx=0;exitDy=0;fontFamily=JetBrains Mono;endFill=0;startArrow=classic;startFill=1;" edge="1" parent="1" source="237" target="234">
                    <mxGeometry width="50" height="50" relative="1" as="geometry">
                        <mxPoint x="1230.0000000000005" y="570" as="sourcePoint"/>
                        <mxPoint x="1130.0000000000005" y="610" as="targetPoint"/>
                    </mxGeometry>
                </mxCell>
                <mxCell id="241" value="" style="endArrow=classic;html=1;entryX=0.145;entryY=0;entryDx=0;entryDy=4.35;exitX=0.75;exitY=1;exitDx=0;exitDy=0;fontFamily=JetBrains Mono;entryPerimeter=0;" edge="1" parent="1" source="234" target="236">
                    <mxGeometry width="50" height="50" relative="1" as="geometry">
                        <mxPoint x="1210" y="550" as="sourcePoint"/>
                        <mxPoint x="1170" y="550" as="targetPoint"/>
                    </mxGeometry>
                </mxCell>
                <mxCell id="242" value="" style="shape=cylinder3;whiteSpace=wrap;html=1;boundedLbl=1;backgroundOutline=1;size=15;fontFamily=JetBrains Mono;rotation=90;horizontal=0;" vertex="1" parent="1">
                    <mxGeometry x="1200.5" y="500" width="40" height="80" as="geometry"/>
                </mxCell>
                <mxCell id="245" value="" style="endArrow=classic;html=1;entryX=0.5;entryY=1;entryDx=0;entryDy=0;entryPerimeter=0;fontFamily=JetBrains Mono;exitX=1;exitY=0.25;exitDx=0;exitDy=0;" edge="1" parent="1" source="234" target="242">
                    <mxGeometry width="50" height="50" relative="1" as="geometry">
                        <mxPoint x="1150" y="510" as="sourcePoint"/>
                        <mxPoint x="1130" y="649.9999999999998" as="targetPoint"/>
                    </mxGeometry>
                </mxCell>
                <mxCell id="246" value="" style="endArrow=classic;html=1;entryX=0;entryY=0.5;entryDx=0;entryDy=0;fontFamily=JetBrains Mono;exitX=0.5;exitY=0;exitDx=0;exitDy=0;exitPerimeter=0;" edge="1" parent="1" source="242" target="237">
                    <mxGeometry width="50" height="50" relative="1" as="geometry">
                        <mxPoint x="1170" y="580" as="sourcePoint"/>
                        <mxPoint x="1190.5" y="550" as="targetPoint"/>
                    </mxGeometry>
                </mxCell>
                <mxCell id="247" value="PAIN" style="rounded=0;whiteSpace=wrap;html=1;fontFamily=JetBrains Mono;" vertex="1" parent="1">
                    <mxGeometry x="841" y="1040" width="80" height="40" as="geometry"/>
                </mxCell>
                <mxCell id="248" value="&lt;meta charset=&quot;utf-8&quot;&gt;&lt;span style=&quot;color: rgb(0, 0, 0); font-family: helvetica; font-size: 12px; font-style: normal; font-weight: 400; letter-spacing: normal; text-align: center; text-indent: 0px; text-transform: none; word-spacing: 0px; background-color: rgb(248, 249, 250); display: inline; float: none;&quot;&gt;PAIN&lt;/span&gt;" style="rounded=0;whiteSpace=wrap;html=1;fontFamily=JetBrains Mono;" vertex="1" parent="1">
                    <mxGeometry x="961" y="1040" width="80" height="40" as="geometry"/>
                </mxCell>
                <mxCell id="249" value="&lt;meta charset=&quot;utf-8&quot;&gt;&lt;span style=&quot;color: rgb(0, 0, 0); font-family: helvetica; font-size: 12px; font-style: normal; font-weight: 400; letter-spacing: normal; text-align: center; text-indent: 0px; text-transform: none; word-spacing: 0px; background-color: rgb(248, 249, 250); display: inline; float: none;&quot;&gt;PAIN&lt;/span&gt;" style="rounded=0;whiteSpace=wrap;html=1;fontFamily=JetBrains Mono;" vertex="1" parent="1">
                    <mxGeometry x="1081" y="1040" width="80" height="40" as="geometry"/>
                </mxCell>
                <mxCell id="250" value="PAIN" style="rounded=0;whiteSpace=wrap;html=1;fontFamily=JetBrains Mono;" vertex="1" parent="1">
                    <mxGeometry x="921" y="920" width="160" height="40" as="geometry"/>
                </mxCell>
                <mxCell id="251" value="" style="endArrow=classic;html=1;exitX=0.25;exitY=1;exitDx=0;exitDy=0;entryX=0.5;entryY=0;entryDx=0;entryDy=0;fontFamily=JetBrains Mono;" edge="1" parent="1" source="250" target="247">
                    <mxGeometry width="50" height="50" relative="1" as="geometry">
                        <mxPoint x="891" y="1090" as="sourcePoint"/>
                        <mxPoint x="891" y="1130" as="targetPoint"/>
                    </mxGeometry>
                </mxCell>
                <mxCell id="252" value="" style="endArrow=classic;html=1;entryX=0.5;entryY=0;entryDx=0;entryDy=0;fontFamily=JetBrains Mono;" edge="1" parent="1" target="248">
                    <mxGeometry width="50" height="50" relative="1" as="geometry">
                        <mxPoint x="1001" y="960" as="sourcePoint"/>
                        <mxPoint x="891" y="1050" as="targetPoint"/>
                    </mxGeometry>
                </mxCell>
                <mxCell id="253" value="" style="endArrow=classic;html=1;entryX=0.5;entryY=0;entryDx=0;entryDy=0;exitX=0.75;exitY=1;exitDx=0;exitDy=0;fontFamily=JetBrains Mono;" edge="1" parent="1" source="250" target="249">
                    <mxGeometry width="50" height="50" relative="1" as="geometry">
                        <mxPoint x="1011" y="970" as="sourcePoint"/>
                        <mxPoint x="1011" y="1050" as="targetPoint"/>
                    </mxGeometry>
                </mxCell>
            </root>
        </mxGraphModel>
    </diagram>
</mxfile>